<?xml version="1.0" standalone="no"?>
<!DOCTYPE svg PUBLIC "-//W3C//DTD SVG 1.1//EN" "http://www.w3.org/Graphics/SVG/1.1/DTD/svg11.dtd" >
<svg>
<metadata>
Created by FontForge 20110222 at Mon Mar  7 13:16:11 2011
 By www-data
Modern and elegant sans serif free font.
</metadata>
<defs>
<font id="Dekar" horiz-adv-x="472" >
  <font-face 
    font-family="Dekar"
    font-weight="400"
    font-stretch="normal"
    units-per-em="1000"
    panose-1="2 0 0 0 0 0 0 0 0 0"
    ascent="750"
    descent="-250"
    x-height="490"
    cap-height="701"
    bbox="-54 -220 794 840"
    underline-thickness="50"
    underline-position="-50"
    unicode-range="U+0020-20AC"
  />
    <missing-glyph />
    <glyph glyph-name="b" unicode="b" horiz-adv-x="474" 
d="M50 704h51v-271c82 97 324 61 324 -88v-221v0c0 -66 -50 -108 -115 -125c-74 -20 -173 -1 -213 56v-55h-47v704zM101 354v-208c0 -76 74 -106 137 -106c20 0 41 2 59 7c43 12 77 38 77 77v0v223c0 126 -273 116 -273 7z" />
    <glyph glyph-name="a" unicode="a" horiz-adv-x="465" 
d="M344 294v64c0 15 -3 29 -12 41c-17 24 -48 39 -84 46c-27 5 -51 4 -79 0c-36 -6 -71 -21 -92 -52l-43 27c59 95 273 100 339 9c16 -23 21 -48 21 -75v-263c0 -37 24 -47 49 -47v-45c-42 -3 -75 9 -90 40c-43 -42 -97 -52 -146 -52c-24 0 -49 4 -73 10
c-136 37 -152 201 -50 268c62 42 161 48 260 29zM344 122v126c-74 19 -171 21 -228 -19c-70 -49 -64 -157 32 -184c18 -5 38 -7 59 -7c52 0 137 20 137 84z" />
    <glyph glyph-name="c" unicode="c" horiz-adv-x="466" 
d="M372 129h50c0 -66 -50 -108 -114 -125v-1c-47 -12 -99 -12 -146 0c-62 17 -114 59 -114 128v229c0 68 53 109 114 126v0c23 6 48 10 73 10c24 0 49 -4 73 -10c64 -18 114 -59 114 -126h-50c0 40 -34 66 -78 78c-18 5 -39 8 -59 8c-21 0 -41 -3 -60 -8v0
c-37 -10 -77 -34 -77 -79v-228c0 -45 39 -69 77 -80c37 -10 82 -10 119 0h1c43 12 77 38 77 78z" />
    <glyph glyph-name="d" unicode="d" 
d="M373 704h50v-704h-46v55c-40 -57 -140 -76 -214 -56c-64 17 -114 59 -114 125v0v221c0 149 242 185 324 88v271zM373 146v208c0 109 -273 119 -273 -7v-223h-1c0 -39 34 -65 78 -77c18 -5 39 -7 59 -7c63 0 137 30 137 106z" />
    <glyph glyph-name="e" unicode="e" horiz-adv-x="464" 
d="M101 362v-131c43 2 149 -9 216 23c85 40 69 160 -20 185c-38 10 -81 10 -119 0c-43 -12 -77 -38 -77 -77zM101 187v-51c0 -16 3 -29 12 -42c17 -23 48 -39 83 -45c27 -5 52 -5 79 0c37 5 71 20 93 51v0v0l43 -26c-29 -47 -78 -67 -129 -75c-30 -5 -57 -6 -87 -1
c-51 8 -97 31 -123 66c-16 23 -22 48 -22 76v222c0 66 50 107 115 125c47 13 98 13 145 0c130 -39 152 -212 31 -276c-70 -38 -173 -24 -240 -24z" />
    <glyph glyph-name="f" unicode="f" horiz-adv-x="289" 
d="M152 0h-51v445h-86v46h86v73c0 112 87 145 179 140v-46c-66 -2 -128 -10 -128 -94v-73h118v-46h-118v-445z" />
    <glyph glyph-name="g" unicode="g" horiz-adv-x="480" 
d="M307 146c38 13 67 38 67 74v143v0c0 39 -34 65 -77 77c-19 5 -39 7 -60 7s-41 -2 -59 -7c-44 -12 -77 -38 -77 -77v-143c0 -47 47 -74 102 -82v0c17 -3 35 -3 53 -2c18 2 35 5 51 10zM364 465l35 37l38 -33l-35 -37c14 -19 22 -42 22 -69v0v-143
c0 -62 -43 -102 -101 -122c-20 -6 -41 -11 -63 -12c-21 -2 -43 -1 -64 2h-1c-9 1 -18 3 -26 5c-42 0 -54 -46 -8 -54c96 -16 259 31 259 -120v0v-18c0 -62 -37 -95 -94 -111c-25 -8 -54 -10 -81 -10c-28 0 -56 2 -83 9c-59 13 -103 45 -107 108c-1 16 -1 33 4 48h50
c-4 -14 -5 -31 -3 -45c3 -35 31 -52 66 -63c46 -14 105 -11 140 1c38 13 57 27 57 63v18v0c0 99 -142 60 -221 73c-74 12 -91 81 -48 117c3 3 7 6 11 8c-37 22 -61 57 -61 103v143c0 66 50 108 114 125c24 7 49 10 73 10c25 0 50 -3 73 -10c20 -5 38 -13 54 -23z" />
    <glyph glyph-name="h" unicode="h" horiz-adv-x="473" 
d="M102 0h-51v704h51v-252c67 63 188 59 259 16c38 -22 63 -56 64 -103v-3v-362h-50v362v2c-1 27 -16 47 -40 61c-26 16 -61 23 -97 24h-3c-49 -1 -97 -16 -120 -46c-10 -14 -13 -29 -13 -45v-358z" />
    <glyph glyph-name="j" unicode="j" horiz-adv-x="168" 
d="M64 493h50v-563c0 -107 -77 -146 -168 -143v51c62 -2 118 17 118 91v564zM62 617v89h54v-89h-54z" />
    <glyph glyph-name="k" unicode="k" horiz-adv-x="465" 
d="M100 0h-50v704h50v-456l263 243h67v-5l-227 -208c102 21 218 -24 221 -121v-4v-153h-50v153v2c-3 101 -208 109 -261 39c-10 -14 -13 -28 -13 -45v-149z" />
    <glyph glyph-name="l" unicode="l" horiz-adv-x="199" 
d="M174 41v-45c-82 -5 -123 21 -123 110v594h50v-595c0 -52 21 -64 73 -64z" />
    <glyph glyph-name="m" unicode="m" horiz-adv-x="754" 
d="M398 362v-362h-50v362c-4 62 -62 91 -120 90c-64 -2 -128 -41 -128 -103v-349h-51v491h51v-47c37 41 89 53 136 53c61 0 119 -24 140 -71c27 47 90 69 147 69c87 -1 174 -45 174 -139v-356h-51v357c0 64 -62 92 -124 92c-60 0 -120 -27 -124 -87z" />
    <glyph glyph-name="n" unicode="n" horiz-adv-x="474" 
d="M424 0h-51v358c0 59 -68 91 -136 91s-137 -31 -137 -99v-350h-51v492h51v-46c37 40 89 52 136 52c93 1 188 -43 188 -141v-357z" />
    <glyph glyph-name="o" unicode="o" horiz-adv-x="469" 
d="M304 55c38 13 67 39 67 75v232v0c0 39 -34 65 -77 77c-19 5 -39 8 -60 8s-41 -3 -60 -8c-43 -12 -77 -37 -77 -77v-232c0 -45 45 -74 97 -83c37 -6 75 -4 110 8zM421 362v-232c0 -62 -43 -102 -101 -122c-43 -14 -89 -16 -134 -9c-75 13 -139 56 -139 131v232
c0 66 50 108 114 125c24 7 48 10 73 10s50 -3 73 -10c64 -17 114 -59 114 -125v0z" />
    <glyph glyph-name="p" unicode="p" 
d="M99 -215h-50v704h46v-55c40 57 140 77 214 56c64 -17 114 -59 114 -125v0v-227c0 -149 -242 -185 -324 -88v-265zM99 343v-213c0 -110 273 -120 273 6v229h1c0 39 -34 65 -78 77c-18 5 -39 7 -59 7c-63 0 -137 -30 -137 -106z" />
    <glyph glyph-name="q" unicode="q" horiz-adv-x="470" 
d="M422 -215h-51v265c-81 -97 -323 -61 -323 88v227v0c0 66 50 108 114 125c74 21 174 1 213 -56v55h47v-704zM371 130v213c0 76 -73 106 -136 106c-21 0 -41 -2 -60 -7c-43 -12 -77 -38 -77 -77v0v-229c0 -126 273 -116 273 -6z" />
    <glyph glyph-name="r" unicode="r" horiz-adv-x="319" 
d="M101 0h-51v223v128v140h49v-54c43 61 138 72 208 54l-8 -47c-66 22 -198 -12 -198 -92v-352z" />
    <glyph glyph-name="s" unicode="s" horiz-adv-x="445" 
d="M36 94l43 28c36 -86 148 -86 209 -69c44 12 78 39 78 79c1 69 -69 78 -139 87c-92 12 -183 23 -182 138c1 69 51 112 115 131c79 22 207 13 245 -72l-40 -26c-37 63 -129 67 -192 49c-44 -13 -78 -40 -78 -82c-1 -69 69 -78 139 -87c91 -12 183 -24 182 -138
c-1 -68 -51 -110 -115 -128c-87 -25 -231 -8 -265 90z" />
    <glyph glyph-name="t" unicode="t" horiz-adv-x="289" 
d="M98 702h50v-211h119v-45c-40 0 -79 0 -119 -1v-307c0 -84 62 -92 128 -94v-46c-91 -5 -178 28 -178 139v309h-86v45h86v211z" />
    <glyph glyph-name="u" unicode="u" horiz-adv-x="480" 
d="M49 490h50v-355c0 -60 69 -92 137 -92s137 32 137 99v348h50v-490h-50v47c-37 -41 -89 -52 -136 -53c-93 0 -188 43 -188 141v355z" />
    <glyph glyph-name="v" unicode="v" horiz-adv-x="464" 
d="M243 -5h-20l-135 128c-33 32 -39 51 -39 85v282h51v-282c0 -21 2 -29 17 -43l116 -110l116 110c15 14 18 22 18 43v282h50v-282c0 -34 -6 -53 -39 -85z" />
    <glyph glyph-name="w" unicode="w" horiz-adv-x="737" 
d="M231 -5h-19l-125 128c-32 33 -39 51 -39 85v282h51v-282c0 -21 3 -28 17 -43l105 -110l105 110c15 15 18 22 18 43v0v282h50v-282v0c0 -21 3 -28 18 -43l105 -110l105 110c14 15 17 22 17 43v282h51v-282c0 -34 -7 -52 -39 -85l-125 -128h-19l-138 146z" />
    <glyph glyph-name="x" unicode="x" horiz-adv-x="460" 
d="M83 147l103 98l-103 98c-34 32 -39 51 -39 85v62h50v-62c0 -21 3 -29 18 -43l115 -110h1l115 110c16 14 18 22 18 43v62h51v-62c0 -34 -6 -53 -39 -85l-104 -98l104 -98c33 -32 39 -51 39 -85v-62h-51v62c0 20 -2 29 -18 43l-115 110h-1l-115 -110
c-15 -14 -18 -23 -18 -43v-62h-50v62c0 34 5 53 39 85z" />
    <glyph glyph-name="y" unicode="y" horiz-adv-x="471" 
d="M422 -68v-9c0 -69 -52 -111 -113 -127c-24 -7 -49 -10 -73 -10c-63 0 -142 21 -174 81v0l43 23c28 -41 84 -54 131 -54c20 0 41 2 59 7c39 11 76 37 77 80v9v8v98c-68 -63 -188 -59 -260 -16c-39 23 -64 60 -64 107v361h51v-360c0 -30 14 -50 39 -65
c27 -16 62 -23 97 -24l3 1c50 0 98 15 121 46c10 13 13 28 13 45v357h50v-558z" />
    <glyph glyph-name="z" unicode="z" horiz-adv-x="431" 
d="M45 440v50h271c84 -1 123 -87 57 -142l-273 -241c-29 -27 -13 -57 26 -57h280v-50h-282c-84 1 -123 86 -58 142l273 241c30 27 13 57 -25 57h-269z" />
    <glyph glyph-name="space" unicode=" " horiz-adv-x="238" 
 />
    <glyph glyph-name="at" unicode="@" horiz-adv-x="500" 
 />
    <glyph glyph-name="A" unicode="A" horiz-adv-x="534" 
d="M411 675c37 -22 62 -57 62 -103h1v0v-572h-50v274h-324v-274h-50v572v0v0c0 46 25 81 62 103c73 44 227 44 299 0zM138 633c-23 -14 -38 -35 -38 -61v0v0v-248h324v248v0v0c0 26 -16 47 -39 61c-57 35 -191 34 -247 0z" />
    <glyph glyph-name="B" unicode="B" horiz-adv-x="534" 
d="M99 650v-270h188c31 0 65 5 92 22c22 13 35 32 35 57v114v0v0c0 24 -14 43 -35 55c-25 15 -58 22 -91 22v0v0h-189zM289 330h-1h-189v-280h189v0v0c39 0 78 9 106 26c26 15 43 37 43 66v0v1v95v0v0c0 29 -17 51 -43 66v0c-28 18 -66 26 -105 26zM404 359l-3 -2
c7 -3 13 -6 19 -10v0c40 -24 66 -60 66 -109v0v0v-95v-1v0c0 -49 -26 -85 -66 -109c-36 -22 -84 -33 -132 -33v0v0h-239l1 700h238v0v0c42 0 84 -10 116 -29c36 -21 59 -54 60 -98v0v0v-116v0v0c-1 -44 -24 -77 -60 -98z" />
    <glyph glyph-name="C" unicode="C" horiz-adv-x="516" 
d="M424 131l50 1c0 -66 -48 -107 -111 -125c-54 -15 -143 -15 -196 -1c-65 17 -116 59 -117 125v0v439v0c1 73 62 116 135 130c55 10 135 9 187 -8v0c59 -20 102 -60 102 -122h-50c0 37 -29 62 -67 75v0c-46 15 -115 15 -163 6c-51 -10 -94 -37 -94 -81v0v-439v0
c0 -39 35 -65 80 -77c47 -12 122 -12 169 1c43 12 75 38 75 76z" />
    <glyph glyph-name="D" unicode="D" horiz-adv-x="529" 
d="M420 115c7 20 4 366 4 451c0 60 -80 85 -132 85h-4v0h-1h-186v-600h185v0c47 0 118 16 134 64zM286 0h-236v701h243c81 0 182 -41 182 -135v-430c0 -96 -103 -136 -189 -136z" />
    <glyph glyph-name="E" unicode="E" 
d="M100 651v-275h322v-51h-322c0 -32 -3 -191 4 -211c16 -47 86 -63 133 -63v0h185v-51h-185v1c-85 -1 -187 39 -187 134v566h372v-50h-322z" />
    <glyph glyph-name="F" unicode="F" horiz-adv-x="460" 
d="M49 701h374v-50h-323v-279h273v-51h-273c0 -20 -1 -267 -1 -321h-50v701z" />
    <glyph glyph-name="G" unicode="G" horiz-adv-x="527" 
d="M474 346v-220c0 -65 -49 -106 -111 -124c-55 -16 -141 -16 -196 -1c-65 17 -116 58 -117 125v0v448v1c1 73 62 116 135 130c55 10 135 9 187 -9v0c59 -19 102 -60 102 -122l-50 1c0 36 -29 61 -67 74v0c-46 16 -115 16 -163 7c-51 -10 -94 -37 -94 -82v0v-448v0
c0 -40 35 -66 80 -77c47 -13 123 -12 169 1c43 12 75 37 75 76v174h-138v46h188z" />
    <glyph glyph-name="H" unicode="H" horiz-adv-x="514" 
d="M409 324h-310v-324h-49v701h49v-327h310v327h50v-701h-50v324z" />
    <glyph glyph-name="I" unicode="I" horiz-adv-x="179" 
d="M63 701h50v-701h-50v701z" />
    <glyph glyph-name="J" unicode="J" horiz-adv-x="414" 
d="M309 700h52v-573c0 -184 -334 -177 -333 -1l50 -1c-1 -115 232 -115 232 -5c0 188 1 393 -1 580z" />
    <glyph glyph-name="K" unicode="K" horiz-adv-x="531" 
d="M180 346h128c83 0 175 -24 175 -129v-217h-50v217c0 68 -68 86 -125 86h-206v-303h-49v700h49v-354h17l324 354h61v-10z" />
    <glyph glyph-name="L" unicode="L" horiz-adv-x="410" 
d="M240 51h145v-51h-145c-96 0 -190 39 -190 150v550h51v-550c0 -75 78 -99 139 -99z" />
    <glyph glyph-name="M" unicode="M" horiz-adv-x="660" 
d="M325 234l213 466h62v-700h-51v561l7 71h-3l-21 -67l-186 -397h-41l-186 397l-21 67h-3l7 -71v-561h-51v700h62z" />
    <glyph glyph-name="N" unicode="N" horiz-adv-x="530" 
d="M474 700v-700h-53l-301 565l-25 67h-4l9 -71v-561h-50v700h54l301 -565l25 -66h3l-9 71v560h50z" />
    <glyph glyph-name="O" unicode="O" horiz-adv-x="525" 
d="M419 107c2 4 3 13 3 26l1 441c0 118 -322 118 -322 0l1 -441c0 -13 1 -22 3 -26c30 -87 284 -87 314 0zM51 128v446c0 179 422 179 422 0v-446c0 -182 -422 -182 -422 0z" />
    <glyph glyph-name="P" unicode="P" horiz-adv-x="460" 
d="M100 320h138c68 0 137 28 137 85v0v161c0 64 -85 84 -136 85v0h-139v-331zM238 270h-138v-270h-49v700h188v0c81 0 185 -40 185 -134v-161v0c0 -90 -93 -135 -186 -135z" />
    <glyph glyph-name="Q" unicode="Q" horiz-adv-x="526" 
d="M382 67l-66 69l67 1l36 -35c4 10 5 21 5 32v439c0 118 -322 116 -322 0v-439c0 -12 2 -21 3 -25c28 -80 216 -76 277 -42zM51 130v443c0 179 423 178 423 0v-443c0 -26 -7 -47 -19 -65l61 -70h-68l-30 35c-98 -64 -367 -51 -367 100z" />
    <glyph glyph-name="R" unicode="R" horiz-adv-x="469" 
d="M374 399v167c0 64 -85 90 -136 90h-139v-343h135c54 0 140 17 140 86zM234 268h-135v-268h-49v700h188c24 0 186 -2 186 -134v-167c0 -54 -41 -100 -95 -111c52 -12 95 -53 95 -109v-179h-50v179c0 68 -89 89 -140 89z" />
    <glyph glyph-name="S" unicode="S" horiz-adv-x="468" 
d="M413 578l-50 1c1 100 -188 104 -253 43c-42 -40 -51 -128 -11 -175c29 -35 83 -49 131 -61c118 -30 212 -81 211 -217c-1 -57 -27 -103 -65 -135c-64 -53 -174 -54 -251 -29v0c-58 20 -102 66 -101 128l49 -1c2 -42 37 -76 75 -87c65 -18 140 -19 196 27
c28 23 46 56 47 97c1 107 -91 151 -174 172c-60 15 -117 33 -152 70c-61 66 -51 189 11 247c90 85 338 67 337 -80z" />
    <glyph glyph-name="T" unicode="T" horiz-adv-x="481" 
d="M22 656v44h431v-44h-190l-2 -656h-51l2 656h-190z" />
    <glyph glyph-name="U" unicode="U" horiz-adv-x="527" 
d="M251 44h15c46 0 92 5 119 22c24 14 39 37 39 65v569h50v-569c0 -46 -24 -82 -63 -106c-34 -21 -89 -32 -144 -31h-10c-55 -1 -110 10 -144 31c-39 24 -63 60 -63 106v569h50v-569c0 -28 15 -49 39 -63c25 -16 68 -24 112 -24z" />
    <glyph glyph-name="V" unicode="V" horiz-adv-x="519" 
d="M270 -8h-21l-161 142c-30 27 -38 53 -38 91v476h51v-477c0 -26 0 -32 20 -51l139 -124l139 124c19 19 19 25 19 51v477h51v-476c0 -38 -8 -64 -38 -91z" />
    <glyph glyph-name="W" unicode="W" horiz-adv-x="829" 
d="M255 -9h-21l-147 142c-28 28 -37 53 -37 91v476h50v-477c0 -26 1 -32 20 -51l125 -124l124 124c20 19 20 25 20 51v1v476h51v-476v-1c0 -26 0 -32 19 -51l125 -124l125 124c19 19 19 25 19 51v477h51v-476c0 -38 -9 -63 -38 -91l-146 -142h-22c-55 53 -110 103 -159 162
c-48 -59 -103 -109 -159 -162z" />
    <glyph glyph-name="X" unicode="X" horiz-adv-x="506" 
d="M84 234l131 115l-131 116c-30 26 -37 53 -37 91v144h50v-145c0 -26 0 -32 20 -51l139 -124l139 124c19 19 19 25 19 51v145h51v-144c0 -38 -8 -65 -38 -91l-130 -116l130 -115c30 -26 38 -53 38 -91v-143h-51v144c0 26 0 32 -19 51l-139 124l-139 -124
c-20 -19 -20 -25 -20 -51v-144h-50v143c0 38 7 65 37 91z" />
    <glyph glyph-name="Y" unicode="Y" horiz-adv-x="485" 
d="M116 454l128 -134l128 134c18 18 26 31 26 58v188h51v-187c0 -38 -10 -63 -38 -91l-142 -148v-273h-50v273l-142 148c-28 28 -38 53 -38 91v187h51v-188c0 -27 8 -40 26 -58z" />
    <glyph glyph-name="Z" unicode="Z" horiz-adv-x="464" 
d="M43 653v47h303c60 0 83 -20 83 -85v-44c-3 -199 -347 -244 -352 -441v-36c0 -31 11 -43 36 -43h317v-50h-317c-56 0 -82 26 -82 93v37c0 206 352 295 352 440v44c0 29 -12 38 -38 38h-302z" />
    <glyph glyph-name="exclam" unicode="!" horiz-adv-x="184" 
d="M120 72v-72h-57v72h57zM119 702v-550h-53v550h53z" />
    <glyph glyph-name="quotedbl" unicode="&#x22;" horiz-adv-x="224" 
d="M86 702v-166h-48v166h48zM178 702v-166h-48v166h48z" />
    <glyph glyph-name="quotesingle" unicode="'" horiz-adv-x="156" 
d="M106 702v-166h-48v166h48z" />
    <glyph glyph-name="hyphen" unicode="-" horiz-adv-x="317" 
d="M43 299h215v-50h-215v50z" />
    <glyph glyph-name="plus" unicode="+" horiz-adv-x="415" 
d="M233 444v-133h136v-48h-136v-136h-48v136h-133v48h133v133h48z" />
    <glyph glyph-name="one" unicode="1" horiz-adv-x="243" 
d="M27 700h157v-700h-51v648h-106v52z" />
    <glyph glyph-name="two" unicode="2" horiz-adv-x="491" 
d="M90 128v-46c0 -31 11 -34 39 -34h325v-48h-326c-60 0 -88 15 -88 82v47c0 166 189 208 301 274c44 26 68 69 67 123c0 41 -19 74 -47 97c-56 46 -131 46 -196 27c-38 -10 -73 -44 -74 -87h-50c0 62 43 107 101 127h1c77 25 186 24 250 -28c38 -33 64 -78 65 -135
c0 -75 -27 -127 -92 -164c-112 -64 -273 -93 -276 -235z" />
    <glyph glyph-name="zero" unicode="0" horiz-adv-x="522" 
d="M420 133l1 442c0 87 -175 110 -267 69l253 -555c11 14 13 26 13 44zM365 61l-252 553c-8 -11 -13 -24 -13 -39v-442c0 -12 2 -21 3 -25c23 -67 177 -82 262 -47zM49 129v446c0 179 422 179 422 0v-446c0 -182 -422 -182 -422 0z" />
    <glyph glyph-name="three" unicode="3" 
d="M428 566v-106c0 -52 -32 -88 -73 -110c41 -21 73 -57 73 -109v-106c0 -93 -100 -134 -181 -135h-208v51h203v-1l4 1c52 0 131 24 131 84v106c0 60 -79 87 -131 87h-4v0h-203v44h203v0h4c52 0 131 28 131 88v106c0 60 -79 84 -131 84h-4v0h-203v51l208 -1
c81 0 181 -41 181 -134z" />
    <glyph glyph-name="four" unicode="4" horiz-adv-x="503" 
d="M404 229v471h50v-700h-50v179h-281c-89 1 -118 92 -72 162l174 359h59l-190 -384c-21 -32 -17 -87 31 -87h279z" />
    <glyph glyph-name="five" unicode="5" horiz-adv-x="530" 
d="M59 129h49c0 -39 33 -64 75 -76c47 -14 122 -14 170 -1c44 11 79 37 80 77v0v165v0c-1 44 -44 72 -95 81c-21 4 -45 6 -70 6h-122c-57 0 -89 34 -89 92v227v0h406v-51h-355v-173c0 -32 10 -45 43 -45h114c27 0 55 -2 82 -7c73 -14 135 -57 135 -130v0v-165v0
c0 -67 -52 -108 -117 -125c-53 -14 -141 -14 -195 1c-63 18 -112 59 -111 124z" />
    <glyph glyph-name="six" unicode="6" horiz-adv-x="519" 
d="M362 5c-54 -15 -142 -15 -195 -1c-65 17 -116 59 -117 125v0v440c0 78 66 119 135 132c52 10 127 9 179 -6c59 -17 110 -58 109 -125l-49 1c0 42 -38 66 -75 77c-45 13 -109 13 -155 4c-44 -8 -94 -32 -94 -83v-193h174c21 0 43 -2 64 -6c67 -12 135 -54 135 -131v-107
c0 -68 -48 -109 -111 -127zM276 326h-176v-90v-107h-1c1 -39 36 -65 81 -77c47 -12 122 -12 169 1c38 11 75 35 75 78l-1 108c0 51 -52 75 -94 83c-18 3 -36 4 -53 4z" />
    <glyph glyph-name="seven" unicode="7" horiz-adv-x="478" 
d="M25 650v50h337c90 -1 119 -92 73 -162l-322 -538h-59l338 563c21 32 16 87 -31 87h-336z" />
    <glyph glyph-name="eight" unicode="8" horiz-adv-x="545" 
d="M484 575v-110c0 -53 -38 -94 -93 -111c55 -10 106 -48 106 -108v-118c0 -91 -119 -136 -225 -136s-226 45 -226 136v118c0 60 52 98 106 108c-55 17 -92 58 -92 111v110c0 91 106 136 212 136s212 -45 212 -136zM272 661c-81 0 -162 -29 -162 -86v-110
c0 -56 81 -89 162 -89c80 0 161 33 161 89v110c0 57 -81 86 -161 86zM272 336c-81 0 -175 -33 -175 -90v-118c0 -57 94 -86 175 -86c80 0 175 29 175 86v118c0 57 -95 90 -175 90z" />
    <glyph glyph-name="nine" unicode="9" horiz-adv-x="519" 
d="M156 697c54 15 143 15 196 1c65 -17 116 -58 117 -125v0v-442c0 -77 -67 -118 -135 -131c-53 -10 -127 -9 -180 6c-59 17 -109 58 -109 124h50c0 -43 38 -67 74 -77c46 -13 110 -13 156 -4c43 8 94 32 94 83v181h-174c-21 0 -43 1 -64 5c-67 13 -136 54 -136 132l1 120
c-1 69 48 109 110 127zM243 363h176v104v106v0c0 40 -35 66 -80 77c-47 13 -122 13 -169 -1c-38 -10 -75 -34 -75 -78v-121c1 -51 52 -75 95 -83c18 -3 36 -4 53 -4z" />
    <glyph glyph-name="question" unicode="?" horiz-adv-x="483" 
d="M250 180v-65h-50v66c0 160 13 150 131 220c45 27 68 72 67 127c0 40 -19 74 -47 97c-55 46 -131 45 -196 27c-38 -11 -72 -45 -74 -88h-50c0 62 44 108 102 127v0c77 26 187 24 250 -28c39 -32 64 -78 65 -135c1 -74 -27 -129 -92 -166c-111 -64 -103 -40 -106 -182z
M197 -1v59h55v-59h-55z" />
    <glyph glyph-name="parenleft" unicode="(" horiz-adv-x="223" 
d="M191 -119h-50c-93 188 -93 680 0 868h50c-93 -188 -93 -680 0 -868z" />
    <glyph glyph-name="parenright" unicode=")" horiz-adv-x="239" 
d="M90 -119h-50c93 188 93 680 0 868h50c93 -188 93 -680 0 -868z" />
    <glyph glyph-name="equal" unicode="=" horiz-adv-x="491" 
d="M60 299h349v-50h-349v50zM60 443h349v-50h-349v50z" />
    <glyph glyph-name="comma" unicode="," horiz-adv-x="224" 
d="M80 2v67h60v-67c0 -46 -26 -56 -54 -53v22c11 -1 20 16 16 31h-22z" />
    <glyph glyph-name="period" unicode="." horiz-adv-x="205" 
d="M67 -1v68h60v-68h-60z" />
    <glyph glyph-name="colon" unicode=":" horiz-adv-x="215" 
d="M67 -1v68h60v-68h-60zM67 364v68h60v-68h-60z" />
    <glyph glyph-name="semicolon" unicode=";" horiz-adv-x="197" 
d="M67 364v68h60v-68h-60zM66 1v67h60v-67c0 -46 -26 -56 -54 -53v22c11 -1 20 16 16 31h-22z" />
    <glyph glyph-name="grave" unicode="`" horiz-adv-x="184" 
d="M34 774v7h65l29 -87h-44z" />
    <glyph glyph-name="circumflex" unicode="&#x2c6;" horiz-adv-x="317" 
d="M164 741l-42 -47h-50l60 83h64l59 -83h-49z" />
    <glyph glyph-name="acute" unicode="&#xb4;" horiz-adv-x="201" 
d="M155 781v-7l-50 -80h-44l29 87h65z" />
    <glyph glyph-name="cedilla" unicode="&#xb8;" horiz-adv-x="273" 
d="M80 -89v6l34 76h38l-23 -53c67 3 94 -33 93 -63c-3 -73 -133 -92 -172 -36l28 24c24 -26 94 -22 94 14s-65 31 -92 32z" />
    <glyph glyph-name="tilde" unicode="&#x2dc;" horiz-adv-x="292" 
d="M76 637l-31 10c5 27 32 53 59 55c37 4 59 -32 78 -30c13 1 20 9 23 22l31 -13c-5 -27 -25 -45 -53 -47c-35 -2 -52 32 -75 31c-15 -1 -29 -13 -32 -28z" />
    <glyph glyph-name="dieresis" unicode="&#xa8;" horiz-adv-x="356" 
d="M64 642v63h59v-63h-59zM212 642v63h59v-63h-59z" />
    <glyph glyph-name="Euro" unicode="&#x20ac;" horiz-adv-x="522" 
d="M424 131l50 1c0 -66 -48 -107 -111 -125c-54 -15 -143 -15 -196 -1c-65 17 -116 59 -117 125v138h-48v45h48v52h-48v45h48v159c1 73 62 116 135 130c55 10 135 9 187 -8c59 -20 102 -60 102 -122h-50c0 37 -29 62 -67 75c-46 15 -115 15 -163 6c-51 -10 -94 -37 -94 -81
v-159h148v-45h-148v-52h148v-45h-148v-138c0 -39 35 -65 80 -77c47 -12 122 -12 169 1c43 12 75 38 75 76z" />
    <glyph glyph-name="florin" unicode="&#x192;" horiz-adv-x="377" 
d="M319 445h-118l-64 -457c-16 -112 -99 -145 -189 -140l7 46c65 2 119 10 131 94l64 457h-86l7 46h86l10 73c16 112 107 145 198 140l-6 -46c-66 -2 -129 -10 -141 -94l-10 -73h118z" />
    <glyph glyph-name="quotesinglbase" unicode="&#x201a;" horiz-adv-x="232" 
d="M80 2v67h60v-67c0 -46 -26 -56 -54 -53v22c11 -1 20 16 16 31h-22z" />
    <glyph glyph-name="quotedblbase" unicode="&#x201e;" horiz-adv-x="321" 
d="M80 2v67h60v-67c0 -46 -26 -56 -54 -53v22c11 -1 20 16 16 31h-22zM192 2v67h60v-67c0 -46 -26 -56 -54 -53v22c11 -1 20 16 16 31h-22z" />
    <glyph glyph-name="ellipsis" unicode="&#x2026;" horiz-adv-x="516" 
d="M67 -1v68h60v-68h-60zM230 -1v68h60v-68h-60zM395 -1v68h60v-68h-60z" />
    <glyph glyph-name="Scaron" unicode="&#x160;" horiz-adv-x="468" 
d="M363 579l50 -1c1 147 -247 165 -337 80c-62 -58 -72 -181 -11 -247c35 -37 92 -55 152 -70c83 -21 175 -65 174 -172c-1 -41 -19 -74 -47 -97c-56 -46 -131 -45 -196 -27c-38 11 -73 45 -75 87l-49 1c-1 -62 43 -108 101 -128v0c77 -25 187 -24 251 29
c38 32 64 78 65 135c1 136 -93 187 -211 217c-48 12 -102 26 -131 61c-40 47 -31 135 11 175c65 61 254 57 253 -43zM229 778l47 40h54l-65 -70h-71l-65 70h54z" />
    <glyph glyph-name="scaron" unicode="&#x161;" horiz-adv-x="445" 
d="M79 122l-43 -28c34 -98 178 -115 265 -90c64 18 114 60 115 128c1 114 -91 126 -182 138c-70 9 -140 18 -139 87c0 42 34 69 78 82c63 18 155 14 192 -49l40 26c-38 85 -166 94 -245 72c-64 -19 -114 -62 -115 -131c-1 -115 90 -126 182 -138c70 -9 140 -18 139 -87
c0 -40 -34 -67 -78 -79c-61 -17 -173 -17 -209 69zM231 591l45 45h54l-65 -79h-69l-64 79h53z" />
    <glyph glyph-name="Zcaron" unicode="&#x17d;" horiz-adv-x="464" 
d="M43 700v-47h302c26 0 38 -9 38 -38v-44c0 -145 -352 -234 -352 -440v-37c0 -67 26 -93 82 -93h317v50h-317c-25 0 -36 12 -36 43v36c5 197 349 242 352 441v44c0 65 -23 85 -83 85h-303zM238 779l46 39h56l-67 -68h-70l-65 68h54z" />
    <glyph glyph-name="zcaron" unicode="&#x17e;" horiz-adv-x="431" 
d="M45 490v-50h269c38 0 55 -30 25 -57l-273 -241c-65 -56 -26 -141 58 -142h282v50h-280c-39 0 -55 30 -26 57l273 241c66 55 27 141 -57 142h-271zM228 580l42 40h52l-62 -70h-65l-60 70h50z" />
    <glyph glyph-name="OE" unicode="&#x152;" horiz-adv-x="839" 
d="M472 651v-275h322v-51h-322c0 -32 -3 -191 4 -211c16 -47 86 -63 133 -63h185v-51h-185c-58 0 -125 18 -160 68c-80 -117 -398 -95 -398 60v446c0 134 251 170 371 104v23h372v-50h-322zM101 574l1 -441c0 -13 1 -22 3 -26c30 -87 284 -87 314 0c2 4 3 13 3 26v491
c-69 68 -321 51 -321 -50z" />
    <glyph glyph-name="oe" unicode="&#x153;" horiz-adv-x="778" 
d="M421 187v-57c1 -14 5 -25 13 -36c17 -23 48 -39 83 -45c27 -5 52 -5 79 0c37 5 71 20 93 51l43 -26c-29 -47 -78 -67 -129 -75c-30 -5 -57 -6 -87 -1c-49 7 -95 31 -119 74c-17 -40 -46 -53 -77 -64c-43 -14 -89 -16 -134 -9c-75 13 -139 56 -139 131v232
c0 66 50 108 114 125c24 7 48 10 73 10s50 -3 73 -10c36 -10 69 -31 89 -65c19 32 53 55 90 65c47 13 98 13 145 0c130 -39 152 -212 31 -276c-70 -38 -174 -24 -241 -24zM304 55c38 13 67 39 67 75v232c0 39 -34 65 -77 77c-19 5 -39 8 -60 8s-41 -3 -60 -8
c-43 -12 -77 -37 -77 -77v-232c0 -45 45 -74 97 -83c37 -6 75 -4 110 8zM421 362v-131c43 2 150 -9 217 23c85 40 69 160 -20 185c-38 10 -81 10 -119 0c-42 -12 -77 -37 -78 -74v-3z" />
    <glyph glyph-name="Ydieresis" unicode="&#x178;" horiz-adv-x="485" 
d="M116 454l128 -134l128 134c18 18 26 31 26 58v188h51v-187c0 -38 -10 -63 -38 -91l-142 -148v-273h-50v273l-142 148c-28 28 -38 53 -38 91v187h51v-188c0 -27 8 -40 26 -58zM145 746v55h57v-55h-57zM287 746v55h56v-55h-56z" />
    <glyph glyph-name="exclamdown" unicode="&#xa1;" horiz-adv-x="184" 
d="M62 433v72h57v-72h-57zM63 -197v550h53v-550h-53z" />
    <glyph glyph-name="cent" unicode="&#xa2;" horiz-adv-x="466" 
d="M214 495v66h47v-67c15 -1 31 -4 47 -8c64 -18 114 -59 114 -126h-50c0 40 -34 66 -78 78c-18 5 -39 8 -59 8c-21 0 -41 -3 -60 -8c-37 -10 -77 -34 -77 -79v-228c0 -45 39 -69 77 -80c37 -10 82 -10 119 0h1c43 12 77 38 77 78h50c0 -66 -50 -108 -114 -125v-1
c-16 -4 -31 -6 -47 -8v-68h-47v68c-18 1 -35 4 -52 8c-62 17 -114 59 -114 128v229c0 68 53 109 114 126c16 4 34 8 52 9z" />
    <glyph glyph-name="questiondown" unicode="&#xbf;" horiz-adv-x="483" 
d="M233 332v65h50v-66c0 -160 -13 -150 -131 -220c-45 -27 -68 -72 -67 -127c0 -40 19 -74 47 -97c55 -46 131 -45 196 -27c38 11 72 45 74 88h50c0 -62 -44 -108 -102 -127v0c-77 -26 -187 -24 -250 28c-39 32 -64 78 -65 135c-1 74 27 129 92 166c111 64 103 40 106 182z
M286 513v-59h-55v59h55z" />
    <glyph glyph-name="Agrave" unicode="&#xc0;" horiz-adv-x="534" 
d="M411 675c37 -22 62 -57 62 -103h1v0v-572h-50v274h-324v-274h-50v572v0v0c0 46 25 81 62 103c73 44 227 44 299 0zM138 633c-23 -14 -38 -35 -38 -61v0v0v-248h324v248v0v0c0 26 -16 47 -39 61c-57 35 -191 34 -247 0zM190 819v6h65l29 -78h-44z" />
    <glyph glyph-name="Aacute" unicode="&#xc1;" horiz-adv-x="534" 
d="M411 675c-72 44 -226 44 -299 0c-37 -22 -62 -57 -62 -103v0v0v-572h50v274h324v-274h50v572v0h-1c0 46 -25 81 -62 103zM138 633c56 34 190 35 247 0c23 -14 39 -35 39 -61v0v0v-248h-324v248v0v0c0 26 15 47 38 61zM332 822v-5l-53 -67h-47l31 72h69z" />
    <glyph glyph-name="Acircumflex" unicode="&#xc2;" horiz-adv-x="534" 
d="M266 781l-42 -35h-51l61 69h64l59 -69h-49zM411 675c-72 44 -226 44 -299 0c-37 -22 -62 -57 -62 -103v0v0v-572h50v274h324v-274h50v572v0h-1c0 46 -25 81 -62 103zM138 633c56 34 190 35 247 0c23 -14 39 -35 39 -61v0v0v-248h-324v248v0v0c0 26 15 47 38 61z" />
    <glyph glyph-name="Atilde" unicode="&#xc3;" horiz-adv-x="534" 
d="M411 675c37 -22 62 -57 62 -103h1v0v-572h-50v274h-324v-274h-50v572v0v0c0 46 25 81 62 103c73 44 227 44 299 0zM138 633c-23 -14 -38 -35 -38 -61v0v0v-248h324v248v0v0c0 26 -16 47 -39 61c-57 35 -191 34 -247 0zM199 749l-31 10c5 27 32 53 59 55
c37 4 59 -32 78 -30c13 1 20 9 23 22l31 -13c-5 -27 -25 -45 -53 -47c-35 -2 -52 32 -75 31c-15 -1 -29 -13 -32 -28z" />
    <glyph glyph-name="Adieresis" unicode="&#xc4;" horiz-adv-x="534" 
d="M411 675c37 -22 62 -57 62 -103h1v0v-572h-50v274h-324v-274h-50v572v0v0c0 46 25 81 62 103c73 44 227 44 299 0zM138 633c-23 -14 -38 -35 -38 -61v0v0v-248h324v248v0v0c0 26 -16 47 -39 61c-57 35 -191 34 -247 0zM161 748v55h60v-55h-60zM312 748v55h61v-55h-61z
" />
    <glyph glyph-name="Aring" unicode="&#xc5;" horiz-adv-x="534" 
d="M411 675c-72 44 -226 44 -299 0c-37 -22 -62 -57 -62 -103v0v0v-572h50v274h324v-274h50v572v0h-1c0 46 -25 81 -62 103zM138 633c56 34 190 35 247 0c23 -14 39 -35 39 -61v0v0v-248h-324v248v0v0c0 26 15 47 38 61zM203 785c0 30 25 55 59 55c33 0 60 -25 60 -55
c0 -31 -27 -55 -60 -55c-34 0 -59 24 -59 55zM238 784c0 -13 10 -22 25 -22c13 0 24 9 24 22s-11 23 -24 23c-15 0 -25 -10 -25 -23z" />
    <glyph glyph-name="Ccedilla" unicode="&#xc7;" horiz-adv-x="516" 
d="M223 -64v6l24 54c-30 1 -58 4 -80 10c-65 17 -116 59 -117 125v439c1 73 62 116 135 130c55 10 135 9 187 -8c59 -20 102 -60 102 -122h-50c0 37 -29 62 -67 75c-46 15 -115 15 -163 6c-51 -10 -94 -37 -94 -81v-439c0 -39 35 -65 80 -77c47 -12 122 -12 169 1
c43 12 75 38 75 76l50 1c0 -66 -48 -107 -111 -125c-22 -6 -49 -10 -78 -11l-13 -31c67 3 94 -33 93 -63c-3 -73 -133 -92 -172 -36l28 24c24 -26 94 -22 94 14s-65 31 -92 32z" />
    <glyph glyph-name="AE" unicode="&#xc6;" horiz-adv-x="830" 
d="M457 651v-312h322v-51h-322c0 -32 -3 -154 4 -174c16 -47 86 -63 133 -63h185v-51h-185v1c-85 -1 -187 39 -187 134v153h-307v-288h-50v565c0 46 25 81 62 103s94 33 151 33h516v-50h-322zM138 626c-23 -14 -38 -35 -38 -61v-227h307v314h-146c-48 0 -95 -9 -123 -26z
" />
    <glyph glyph-name="Egrave" unicode="&#xc8;" 
d="M100 651v-275h322v-51h-322c0 -32 -3 -191 4 -211c16 -47 86 -63 133 -63v0h185v-51h-185v1c-85 -1 -187 39 -187 134v566h372v-50h-322zM174 809v5h66l30 -69h-45z" />
    <glyph glyph-name="Eacute" unicode="&#xc9;" 
d="M306 814v-5l-51 -64h-45l30 69h66zM100 376v275h322v50h-372v-566c0 -95 102 -135 187 -134v-1h185v51h-185v0c-47 0 -117 16 -133 63c-7 20 -4 179 -4 211h322v51h-322z" />
    <glyph glyph-name="Ecircumflex" unicode="&#xca;" 
d="M100 376v275h322v50h-372v-566c0 -95 102 -135 187 -134v-1h185v51h-185v0c-47 0 -117 16 -133 63c-7 20 -4 179 -4 211h322v51h-322zM252 783l-42 -38h-51l61 67h64l59 -67h-49z" />
    <glyph glyph-name="Edieresis" unicode="&#xcb;" 
d="M100 651v-275h322v-51h-322c0 -32 -3 -191 4 -211c16 -47 86 -63 133 -63v0h185v-51h-185v1c-85 -1 -187 39 -187 134v566h372v-50h-322zM149 750v51h60v-51h-60zM300 750v51h60v-51h-60z" />
    <glyph glyph-name="Igrave" unicode="&#xcc;" horiz-adv-x="179" 
d="M63 701h50v-701h-50v701zM19 809v5h66l30 -69h-45z" />
    <glyph glyph-name="Iacute" unicode="&#xcd;" horiz-adv-x="179" 
d="M162 816v-5l-51 -64h-45l30 69h66zM113 701h-50v-701h50v701z" />
    <glyph glyph-name="Icircumflex" unicode="&#xce;" horiz-adv-x="179" 
d="M113 701h-50v-701h50v701zM90 785l-41 -40h-49l59 71h63l58 -71h-48z" />
    <glyph glyph-name="Idieresis" unicode="&#xcf;" horiz-adv-x="179" 
d="M63 701h50v-701h-50v701zM-9 746v58h59v-58h-59zM139 746v58h59v-58h-59z" />
    <glyph glyph-name="Ntilde" unicode="&#xd1;" horiz-adv-x="530" 
d="M474 700v-700h-53l-301 565l-25 67h-4l9 -71v-561h-50v700h54l301 -565l25 -66h3l-9 71v560h50zM202 746l-31 10c5 27 32 53 59 55c37 4 59 -32 78 -30c13 1 20 9 23 22l31 -13c-5 -27 -25 -45 -53 -47c-35 -2 -52 32 -75 31c-15 -1 -29 -13 -32 -28z" />
    <glyph glyph-name="Ograve" unicode="&#xd2;" horiz-adv-x="525" 
d="M419 107c2 4 3 13 3 26l1 441c0 118 -322 118 -322 0l1 -441c0 -13 1 -22 3 -26c30 -87 284 -87 314 0zM51 128v446c0 179 422 179 422 0v-446c0 -182 -422 -182 -422 0zM201 811v5h66l30 -69h-45z" />
    <glyph glyph-name="Oacute" unicode="&#xd3;" horiz-adv-x="525" 
d="M328 814v-5l-51 -64h-45l30 69h66zM419 107c-30 -87 -284 -87 -314 0c-2 4 -3 13 -3 26l-1 441c0 118 322 118 322 0l-1 -441c0 -13 -1 -22 -3 -26zM51 574v-446c0 -182 422 -182 422 0v446c0 179 -422 179 -422 0z" />
    <glyph glyph-name="Ocircumflex" unicode="&#xd4;" horiz-adv-x="525" 
d="M419 107c-30 -87 -284 -87 -314 0c-2 4 -3 13 -3 26l-1 441c0 118 322 118 322 0l-1 -441c0 -13 -1 -22 -3 -26zM51 574v-446c0 -182 422 -182 422 0v446c0 179 -422 179 -422 0zM263 783l-42 -38h-51l61 67h64l59 -67h-49z" />
    <glyph glyph-name="Otilde" unicode="&#xd5;" horiz-adv-x="525" 
d="M419 107c2 4 3 13 3 26l1 441c0 118 -322 118 -322 0l1 -441c0 -13 1 -22 3 -26c30 -87 284 -87 314 0zM51 128v446c0 179 422 179 422 0v-446c0 -182 -422 -182 -422 0zM197 747l-31 10c5 27 32 53 59 55c37 4 59 -32 78 -30c13 1 20 9 23 22l31 -13
c-5 -27 -25 -45 -53 -47c-35 -2 -52 32 -75 31c-15 -1 -29 -13 -32 -28z" />
    <glyph glyph-name="Odieresis" unicode="&#xd6;" horiz-adv-x="525" 
d="M419 107c2 4 3 13 3 26l1 441c0 118 -322 118 -322 0l1 -441c0 -13 1 -22 3 -26c30 -87 284 -87 314 0zM51 128v446c0 179 422 179 422 0v-446c0 -182 -422 -182 -422 0zM161 748v53h58v-53h-58zM308 748v53h59v-53h-59z" />
    <glyph glyph-name="Oslash" unicode="&#xd8;" horiz-adv-x="525" 
d="M51 128v446c0 125 207 163 331 112l24 53h52l-34 -76c30 -22 49 -51 49 -89v-446c0 -129 -214 -167 -337 -112l-26 -58h-51l36 82c-27 22 -44 51 -44 88zM419 107c2 4 3 13 3 26l1 441c0 17 -7 32 -19 44l-248 -558c84 -36 240 -20 263 47zM101 574l1 -441
c0 -13 1 -22 3 -26c2 -7 6 -14 11 -20l248 557c-93 39 -263 15 -263 -70z" />
    <glyph glyph-name="Ugrave" unicode="&#xd9;" horiz-adv-x="527" 
d="M251 44h15c46 0 92 5 119 22c24 14 39 37 39 65v569h50v-569c0 -46 -24 -82 -63 -106c-34 -21 -89 -32 -144 -31h-10c-55 -1 -110 10 -144 31c-39 24 -63 60 -63 106v569h50v-569c0 -28 15 -49 39 -63c25 -16 68 -24 112 -24zM196 809v5h66l30 -69h-45z" />
    <glyph glyph-name="Uacute" unicode="&#xda;" horiz-adv-x="527" 
d="M318 814v-5l-51 -64h-45l30 69h66zM251 44c-44 0 -87 8 -112 24c-24 14 -39 35 -39 63v569h-50v-569c0 -46 24 -82 63 -106c34 -21 89 -32 144 -31h10c55 -1 110 10 144 31c39 24 63 60 63 106v569h-50v-569c0 -28 -15 -51 -39 -65c-27 -17 -73 -22 -119 -22h-15z" />
    <glyph glyph-name="Ucircumflex" unicode="&#xdb;" horiz-adv-x="527" 
d="M251 44c-44 0 -87 8 -112 24c-24 14 -39 35 -39 63v569h-50v-569c0 -46 24 -82 63 -106c34 -21 89 -32 144 -31h10c55 -1 110 10 144 31c39 24 63 60 63 106v569h-50v-569c0 -28 -15 -51 -39 -65c-27 -17 -73 -22 -119 -22h-15zM268 784l-41 -38h-49l59 67h63l57 -67h-48
z" />
    <glyph glyph-name="Udieresis" unicode="&#xdc;" horiz-adv-x="527" 
d="M251 44h15c46 0 92 5 119 22c24 14 39 37 39 65v569h50v-569c0 -46 -24 -82 -63 -106c-34 -21 -89 -32 -144 -31h-10c-55 -1 -110 10 -144 31c-39 24 -63 60 -63 106v569h50v-569c0 -28 15 -49 39 -63c25 -16 68 -24 112 -24zM164 746v57h60v-57h-60zM313 746v57h59v-57
h-59z" />
    <glyph glyph-name="Yacute" unicode="&#xdd;" horiz-adv-x="485" 
d="M244 320l-128 134c-18 18 -26 31 -26 58v188h-51v-187c0 -38 10 -63 38 -91l142 -148v-273h50v273l142 148c28 28 38 53 38 91v187h-51v-188c0 -27 -8 -40 -26 -58zM311 826v-6l-52 -70h-47l31 76h68z" />
    <glyph glyph-name="agrave" unicode="&#xe0;" horiz-adv-x="465" 
d="M344 294v64c0 15 -3 29 -12 41c-17 24 -48 39 -84 46c-27 5 -51 4 -79 0c-36 -6 -71 -21 -92 -52l-43 27c59 95 273 100 339 9c16 -23 21 -48 21 -75v-263c0 -37 24 -47 49 -47v-45c-42 -3 -75 9 -90 40c-43 -42 -97 -52 -146 -52c-24 0 -49 4 -73 10
c-136 37 -152 201 -50 268c62 42 161 48 260 29zM344 122v126c-74 19 -171 21 -228 -19c-70 -49 -64 -157 32 -184c18 -5 38 -7 59 -7c52 0 137 20 137 84zM153 663v7h65l29 -87h-44z" />
    <glyph glyph-name="aacute" unicode="&#xe1;" horiz-adv-x="465" 
d="M344 358v-64c-99 19 -198 13 -260 -29c-102 -67 -86 -231 50 -268c24 -6 49 -10 73 -10c49 0 103 10 146 52c15 -31 48 -43 90 -40v45c-25 0 -49 10 -49 47v263c0 27 -5 52 -21 75c-66 91 -280 86 -339 -9l43 -27c21 31 56 46 92 52c28 4 52 5 79 0c36 -7 67 -22 84 -46
c9 -12 12 -26 12 -41zM344 122c0 -64 -85 -84 -137 -84c-21 0 -41 2 -59 7c-96 27 -102 135 -32 184c57 40 154 38 228 19v-126zM282 671v-7l-50 -80h-44l29 87h65z" />
    <glyph glyph-name="acircumflex" unicode="&#xe2;" horiz-adv-x="465" 
d="M344 358v-64c-99 19 -198 13 -260 -29c-102 -67 -86 -231 50 -268c24 -6 49 -10 73 -10c49 0 103 10 146 52c15 -31 48 -43 90 -40v45c-25 0 -49 10 -49 47v263c0 27 -5 52 -21 75c-66 91 -280 86 -339 -9l43 -27c21 31 56 46 92 52c28 4 52 5 79 0c36 -7 67 -22 84 -46
c9 -12 12 -26 12 -41zM344 122c0 -64 -85 -84 -137 -84c-21 0 -41 2 -59 7c-96 27 -102 135 -32 184c57 40 154 38 228 19v-126zM221 628l-42 -47h-50l60 83h64l59 -83h-49z" />
    <glyph glyph-name="atilde" unicode="&#xe3;" horiz-adv-x="465" 
d="M344 294v64c0 15 -3 29 -12 41c-17 24 -48 39 -84 46c-27 5 -51 4 -79 0c-36 -6 -71 -21 -92 -52l-43 27c59 95 273 100 339 9c16 -23 21 -48 21 -75v-263c0 -37 24 -47 49 -47v-45c-42 -3 -75 9 -90 40c-43 -42 -97 -52 -146 -52c-24 0 -49 4 -73 10
c-136 37 -152 201 -50 268c62 42 161 48 260 29zM344 122v126c-74 19 -171 21 -228 -19c-70 -49 -64 -157 32 -184c18 -5 38 -7 59 -7c52 0 137 20 137 84zM150 583l-31 10c5 27 32 53 59 55c37 4 59 -32 78 -30c13 1 20 9 23 22l31 -13c-5 -27 -25 -45 -53 -47
c-35 -2 -52 32 -75 31c-15 -1 -29 -13 -32 -28z" />
    <glyph glyph-name="adieresis" unicode="&#xe4;" horiz-adv-x="465" 
d="M344 294v64c0 15 -3 29 -12 41c-17 24 -48 39 -84 46c-27 5 -51 4 -79 0c-36 -6 -71 -21 -92 -52l-43 27c59 95 273 100 339 9c16 -23 21 -48 21 -75v-263c0 -37 24 -47 49 -47v-45c-42 -3 -75 9 -90 40c-43 -42 -97 -52 -146 -52c-24 0 -49 4 -73 10
c-136 37 -152 201 -50 268c62 42 161 48 260 29zM344 122v126c-74 19 -171 21 -228 -19c-70 -49 -64 -157 32 -184c18 -5 38 -7 59 -7c52 0 137 20 137 84zM123 586v53h57v-53h-57zM265 586v53h56v-53h-56z" />
    <glyph glyph-name="aring" unicode="&#xe5;" horiz-adv-x="465" 
d="M344 358v-64c-99 19 -198 13 -260 -29c-102 -67 -86 -231 50 -268c24 -6 49 -10 73 -10c49 0 103 10 146 52c15 -31 48 -43 90 -40v45c-25 0 -49 10 -49 47v263c0 27 -5 52 -21 75c-66 91 -280 86 -339 -9l43 -27c21 31 56 46 92 52c28 4 52 5 79 0c36 -7 67 -22 84 -46
c9 -12 12 -26 12 -41zM344 122c0 -64 -85 -84 -137 -84c-21 0 -41 2 -59 7c-96 27 -102 135 -32 184c57 40 154 38 228 19v-126zM159 628c0 30 23 54 53 54s54 -24 54 -54s-24 -53 -54 -53s-53 23 -53 53zM191 627c0 -12 9 -21 22 -21c12 0 22 9 22 21c0 13 -10 23 -22 23
c-13 0 -22 -10 -22 -23z" />
    <glyph glyph-name="ae" unicode="&#xe6;" horiz-adv-x="751" 
d="M394 187v-51c0 -16 4 -29 13 -42c17 -23 48 -39 83 -45c27 -5 52 -5 79 0c37 5 71 20 93 51l43 -26c-29 -47 -78 -67 -129 -75c-30 -5 -57 -6 -87 -1c-46 7 -89 27 -116 56c-43 -48 -118 -67 -166 -67c-24 0 -49 4 -73 10c-136 37 -152 201 -50 268c62 42 161 48 260 29
v68c-1 13 -4 26 -12 37c-17 24 -48 39 -84 46c-27 5 -51 4 -79 0c-36 -6 -71 -21 -92 -52l-43 27c58 93 272 109 335 2c21 33 53 55 90 65c47 13 98 13 145 0c130 -39 152 -212 31 -276c-70 -38 -174 -24 -241 -24zM344 136v112c-74 19 -171 21 -228 -19
c-70 -49 -64 -157 32 -184c18 -5 38 -7 59 -7c38 0 111 19 143 58c-4 12 -6 26 -6 40zM394 364v-2v-131c43 2 150 -9 217 23c85 40 69 160 -20 185c-38 10 -81 10 -119 0c-43 -12 -77 -37 -78 -75z" />
    <glyph glyph-name="ccedilla" unicode="&#xe7;" horiz-adv-x="466" 
d="M181 -59v5l24 50c-15 1 -29 4 -43 7c-62 17 -114 59 -114 128v229c0 68 53 109 114 126c23 6 48 10 73 10c24 0 49 -4 73 -10c64 -18 114 -59 114 -126h-50c0 40 -34 66 -78 78c-18 5 -39 8 -59 8c-21 0 -41 -3 -60 -8c-37 -10 -77 -34 -77 -79v-228c0 -45 39 -69 77 -80
c37 -10 82 -10 119 0h1c43 12 77 38 77 78h50c0 -66 -50 -108 -114 -125v-1c-22 -5 -44 -8 -67 -9l-12 -27c64 2 90 -30 89 -56c-3 -65 -128 -82 -166 -32l27 21c23 -23 91 -20 91 12s-63 28 -89 29z" />
    <glyph glyph-name="egrave" unicode="&#xe8;" horiz-adv-x="457" 
d="M101 362v-131c43 2 149 -9 216 23c85 40 69 160 -20 185c-38 10 -81 10 -119 0c-43 -12 -77 -38 -77 -77zM101 187v-51c0 -16 3 -29 12 -42c17 -23 48 -39 83 -45c27 -5 52 -5 79 0c37 5 71 20 93 51v0v0l43 -26c-29 -47 -78 -67 -129 -75c-30 -5 -57 -6 -87 -1
c-51 8 -97 31 -123 66c-16 23 -22 48 -22 76v222c0 66 50 107 115 125c47 13 98 13 145 0c130 -39 152 -212 31 -276c-70 -38 -173 -24 -240 -24zM169 663v7h65l29 -87h-44z" />
    <glyph glyph-name="eacute" unicode="&#xe9;" horiz-adv-x="457" 
d="M101 362c0 39 34 65 77 77c38 10 81 10 119 0c89 -25 105 -145 20 -185c-67 -32 -173 -21 -216 -23v131zM101 136v51c67 0 170 -14 240 24c121 64 99 237 -31 276c-47 13 -98 13 -145 0c-65 -18 -115 -59 -115 -125v-222c0 -28 6 -53 22 -76c26 -35 72 -58 123 -66
c30 -5 57 -4 87 1c51 8 100 28 129 75l-43 26v0v0c-22 -31 -56 -46 -93 -51c-27 -5 -52 -5 -79 0c-35 6 -66 22 -83 45c-9 13 -12 26 -12 42zM295 666v-7l-50 -80h-44l29 87h65z" />
    <glyph glyph-name="ecircumflex" unicode="&#xea;" horiz-adv-x="457" 
d="M101 362c0 39 34 65 77 77c38 10 81 10 119 0c89 -25 105 -145 20 -185c-67 -32 -173 -21 -216 -23v131zM101 136v51c67 0 170 -14 240 24c121 64 99 237 -31 276c-47 13 -98 13 -145 0c-65 -18 -115 -59 -115 -125v-222c0 -28 6 -53 22 -76c26 -35 72 -58 123 -66
c30 -5 57 -4 87 1c51 8 100 28 129 75l-43 26v0v0c-22 -31 -56 -46 -93 -51c-27 -5 -52 -5 -79 0c-35 6 -66 22 -83 45c-9 13 -12 26 -12 42zM230 629l-42 -47h-50l60 83h64l59 -83h-49z" />
    <glyph glyph-name="edieresis" unicode="&#xeb;" horiz-adv-x="457" 
d="M101 362v-131c43 2 149 -9 216 23c85 40 69 160 -20 185c-38 10 -81 10 -119 0c-43 -12 -77 -38 -77 -77zM101 187v-51c0 -16 3 -29 12 -42c17 -23 48 -39 83 -45c27 -5 52 -5 79 0c37 5 71 20 93 51v0v0l43 -26c-29 -47 -78 -67 -129 -75c-30 -5 -57 -6 -87 -1
c-51 8 -97 31 -123 66c-16 23 -22 48 -22 76v222c0 66 50 107 115 125c47 13 98 13 145 0c130 -39 152 -212 31 -276c-70 -38 -173 -24 -240 -24zM132 578v63h59v-63h-59zM280 578v63h59v-63h-59z" />
    <glyph glyph-name="igrave" unicode="&#xec;" horiz-adv-x="176" 
d="M63 0v491h51v-491h-51zM21 666v7h65l29 -87h-44z" />
    <glyph glyph-name="iacute" unicode="&#xed;" horiz-adv-x="176" 
d="M63 491v-491h51v491h-51zM153 673v-7l-50 -80h-44l29 87h65z" />
    <glyph glyph-name="icircumflex" unicode="&#xee;" horiz-adv-x="176" 
d="M63 491v-491h51v491h-51zM88 633l-42 -47h-50l60 83h64l59 -83h-49z" />
    <glyph glyph-name="idieresis" unicode="&#xef;" horiz-adv-x="176" 
d="M63 0v491h51v-491h-51zM-13 627v63h59v-63h-59zM135 627v63h59v-63h-59z" />
    <glyph glyph-name="ntilde" unicode="&#xf1;" horiz-adv-x="474" 
d="M424 0h-51v358c0 59 -68 91 -136 91s-137 -31 -137 -99v-350h-51v492h51v-46c37 40 89 52 136 52c93 1 188 -43 188 -141v-357zM177 584l-31 10c5 27 32 53 59 55c37 4 59 -32 78 -30c13 1 20 9 23 22l31 -13c-5 -27 -25 -45 -53 -47c-35 -2 -52 32 -75 31
c-15 -1 -29 -13 -32 -28z" />
    <glyph glyph-name="ograve" unicode="&#xf2;" horiz-adv-x="469" 
d="M304 55c38 13 67 39 67 75v232v0c0 39 -34 65 -77 77c-19 5 -39 8 -60 8s-41 -3 -60 -8c-43 -12 -77 -37 -77 -77v-232c0 -45 45 -74 97 -83c37 -6 75 -4 110 8zM421 362v-232c0 -62 -43 -102 -101 -122c-43 -14 -89 -16 -134 -9c-75 13 -139 56 -139 131v232
c0 66 50 108 114 125c24 7 48 10 73 10s50 -3 73 -10c64 -17 114 -59 114 -125v0zM174 659v7h65l29 -87h-44z" />
    <glyph glyph-name="oacute" unicode="&#xf3;" horiz-adv-x="469" 
d="M304 55c-35 -12 -73 -14 -110 -8c-52 9 -97 38 -97 83v232c0 40 34 65 77 77c19 5 39 8 60 8s41 -3 60 -8c43 -12 77 -38 77 -77v0v-232c0 -36 -29 -62 -67 -75zM421 130v232v0c0 66 -50 108 -114 125c-23 7 -48 10 -73 10s-49 -3 -73 -10c-64 -17 -114 -59 -114 -125
v-232c0 -75 64 -118 139 -131c45 -7 91 -5 134 9c58 20 101 60 101 122zM307 665v-7l-50 -80h-44l29 87h65z" />
    <glyph glyph-name="ocircumflex" unicode="&#xf4;" horiz-adv-x="469" 
d="M304 55c-35 -12 -73 -14 -110 -8c-52 9 -97 38 -97 83v232c0 40 34 65 77 77c19 5 39 8 60 8s41 -3 60 -8c43 -12 77 -38 77 -77v0v-232c0 -36 -29 -62 -67 -75zM421 130v232v0c0 66 -50 108 -114 125c-23 7 -48 10 -73 10s-49 -3 -73 -10c-64 -17 -114 -59 -114 -125
v-232c0 -75 64 -118 139 -131c45 -7 91 -5 134 9c58 20 101 60 101 122zM237 630l-42 -47h-50l60 83h64l59 -83h-49z" />
    <glyph glyph-name="otilde" unicode="&#xf5;" horiz-adv-x="469" 
d="M304 55c38 13 67 39 67 75v232v0c0 39 -34 65 -77 77c-19 5 -39 8 -60 8s-41 -3 -60 -8c-43 -12 -77 -37 -77 -77v-232c0 -45 45 -74 97 -83c37 -6 75 -4 110 8zM421 362v-232c0 -62 -43 -102 -101 -122c-43 -14 -89 -16 -134 -9c-75 13 -139 56 -139 131v232
c0 66 50 108 114 125c24 7 48 10 73 10s50 -3 73 -10c64 -17 114 -59 114 -125v0zM175 584l-31 10c5 27 32 53 59 55c37 4 59 -32 78 -30c13 1 20 9 23 22l31 -13c-5 -27 -25 -45 -53 -47c-35 -2 -52 32 -75 31c-15 -1 -29 -13 -32 -28z" />
    <glyph glyph-name="odieresis" unicode="&#xf6;" horiz-adv-x="469" 
d="M304 55c38 13 67 39 67 75v232v0c0 39 -34 65 -77 77c-19 5 -39 8 -60 8s-41 -3 -60 -8c-43 -12 -77 -37 -77 -77v-232c0 -45 45 -74 97 -83c37 -6 75 -4 110 8zM421 362v-232c0 -62 -43 -102 -101 -122c-43 -14 -89 -16 -134 -9c-75 13 -139 56 -139 131v232
c0 66 50 108 114 125c24 7 48 10 73 10s50 -3 73 -10c64 -17 114 -59 114 -125v0zM133 580v63h59v-63h-59zM281 580v63h59v-63h-59z" />
    <glyph glyph-name="oslash" unicode="&#xf8;" horiz-adv-x="469" 
d="M421 362v-232c0 -62 -43 -102 -101 -122c-43 -14 -89 -16 -134 -9c-19 3 -38 8 -55 16l-25 -46h-51l38 68c-28 22 -46 53 -46 93v232c0 66 50 108 114 125c24 7 48 10 73 10s50 -3 73 -10c10 -3 19 -6 28 -10l22 40h53l-35 -63c28 -22 46 -53 46 -92zM304 55
c38 13 67 39 67 75v232c0 19 -8 34 -21 47l-195 -351c12 -5 25 -9 39 -11c37 -6 75 -4 110 8zM311 433l-17 6c-19 5 -39 8 -60 8s-41 -3 -60 -8c-43 -12 -77 -37 -77 -77v-232c0 -19 7 -35 20 -48z" />
    <glyph glyph-name="ugrave" unicode="&#xf9;" 
d="M49 490h50v-355c0 -60 69 -92 137 -92s137 32 137 99v348h50v-490h-50v47c-37 -41 -89 -52 -136 -53c-93 0 -188 43 -188 141v355zM175 664v7h65l29 -87h-44z" />
    <glyph glyph-name="uacute" unicode="&#xfa;" 
d="M49 490h50v-355c0 -60 69 -92 137 -92s137 32 137 99v348h50v-490h-50v47c-37 -41 -89 -52 -136 -53c-93 0 -188 43 -188 141v355zM297 669v-7l-50 -80h-44l29 87h65z" />
    <glyph glyph-name="ucircumflex" unicode="&#xfb;" 
d="M49 490h50v-355c0 -60 69 -92 137 -92s137 32 137 99v348h50v-490h-50v47c-37 -41 -89 -52 -136 -53c-93 0 -188 43 -188 141v355zM240 629l-42 -47h-50l60 83h64l59 -83h-49z" />
    <glyph glyph-name="udieresis" unicode="&#xfc;" 
d="M49 490h50v-355c0 -60 69 -92 137 -92s137 32 137 99v348h50v-490h-50v47c-37 -41 -89 -52 -136 -53c-93 0 -188 43 -188 141v355zM131 582v63h59v-63h-59zM279 582v63h59v-63h-59z" />
    <glyph glyph-name="yacute" unicode="&#xfd;" horiz-adv-x="471" 
d="M422 -68v-9c0 -69 -52 -111 -113 -127c-24 -7 -49 -10 -73 -10c-63 0 -142 21 -174 81v0l43 23c28 -41 84 -54 131 -54c20 0 41 2 59 7c39 11 76 37 77 80v9v8v98c-68 -63 -188 -59 -260 -16c-39 23 -64 60 -64 107v361h51v-360c0 -30 14 -50 39 -65
c27 -16 62 -23 97 -24l3 1c50 0 98 15 121 46c10 13 13 28 13 45v357h50v-558zM304 669v-7l-50 -80h-44l29 87h65z" />
    <glyph glyph-name="ydieresis" unicode="&#xff;" horiz-adv-x="471" 
d="M422 -68v-9c0 -69 -52 -111 -113 -127c-24 -7 -49 -10 -73 -10c-63 0 -142 21 -174 81v0l43 23c28 -41 84 -54 131 -54c20 0 41 2 59 7c39 11 76 37 77 80v9v8v98c-68 -63 -188 -59 -260 -16c-39 23 -64 60 -64 107v361h51v-360c0 -30 14 -50 39 -65
c27 -16 62 -23 97 -24l3 1c50 0 98 15 121 46c10 13 13 28 13 45v357h50v-558zM140 587v63h59v-63h-59zM288 587v63h59v-63h-59z" />
    <glyph glyph-name="quoteright" unicode="&#x2019;" horiz-adv-x="197" 
d="M80 634v67h60v-67c0 -46 -26 -56 -54 -53v22c11 -1 20 16 16 31h-22z" />
    <glyph glyph-name="quoteleft" unicode="&#x2018;" horiz-adv-x="203" 
d="M140 647v-67h-60v67c0 46 26 56 54 53v-22c-11 1 -20 -16 -16 -31h22z" />
    <glyph glyph-name="quotedblleft" unicode="&#x201c;" horiz-adv-x="313" 
d="M140 647v-67h-60v67c0 46 26 56 54 53v-22c-11 1 -20 -16 -16 -31h22zM246 647v-67h-60v67c0 46 26 56 54 53v-22c-11 1 -20 -16 -16 -31h22z" />
    <glyph glyph-name="quotedblright" unicode="&#x201d;" horiz-adv-x="315" 
d="M186 634v67h60v-67c0 -46 -26 -56 -54 -53v22c11 -1 20 16 16 31h-22zM80 634v67h60v-67c0 -46 -26 -56 -54 -53v22c11 -1 20 16 16 31h-22z" />
    <glyph glyph-name="i" unicode="i" horiz-adv-x="176" 
d="M60 613v89h57v-89h-57zM63 0v491h51v-491h-51z" />
  </font>
</defs>
</svg>
